:FULLY-SPECIFIED
:FORCE-ALL-JOINTS-BE-3DOF
:DEGREES
34
root 6.50273 16.791 -27.7654 5.66702 -0.952646 -0.83579
lfemur -17.4916 4.31593 -20.9253
ltibia 35.361 -0 0
lfoot -34.933 1.29563 -0.46863
ltoes 37.4719 -0 0
rfemur -31.5338 -7.66442 22.2568
rtibia 45.3684 -0 0
rfoot -22.019 -4.02074 2.42708
rtoes 11.4709 -0 0
lowerback 0.511903 2.28789 -5.45269
upperback -1.21941 2.97888 2.24807
thorax -1.90466 1.62944 5.6052
lowerneck -10.2908 -1.9828 1.55733
upperneck -1.12931 -2.80356 -0.521478
head 1.3491 -1.40787 -0.530069
lclavicle -9.65095e-14 -3.25935e-14 -9.24313e-30
lhumerus -41.9786 -12.7553 97.5807
lradius 37.9744 -0 0
lwrist 5.29996 0 0
lhand -7.86431 3.42963 0.116908
lfingers 7.12502 -0 0
lthumb 18.0193 32.3913 0.0321734
rclavicle -9.65095e-14 -3.25935e-14 -9.24313e-30
rhumerus -43.3454 -8.51895 -80.4944
rradius 48.698 -0 0
rwrist 1.0262 0 0
rhand -24.817 -23.089 0.0187787
rfingers 7.12502 -0 0
rthumb 1.68829 -53.0571 0.0183894
35
root 6.5145 16.7883 -27.7514 5.51076 -0.854865 -0.762801
lfemur -17.384 4.4041 -20.9386
ltibia 35.3681 -0 0
lfoot -34.774 1.16022 -0.484532
ltoes 37.4153 -0 0
rfemur -32.0955 -7.99851 22.4424
rtibia 45.8244 -0 0
rfoot -21.6434 -3.73046 2.51055
rtoes 10.9996 -0 0
lowerback 0.665998 2.22791 -5.47806
upperback -1.15786 2.88928 2.21189
thorax -1.91243 1.5845 5.58958
lowerneck -10.3111 -1.96991 1.53716
upperneck -1.11655 -2.78549 -0.483248
head 1.35771 -1.39775 -0.513837
lclavicle -9.57865e-14 -3.21029e-14 -9.58949e-30
lhumerus -41.9758 -12.8544 97.5123
lradius 38.1158 -0 0
lwrist 5.42129 0 0
lhand -7.69823 3.45291 0.121286
lfingers 7.12502 -0 0
lthumb 18.1784 32.3918 0.0336647
rclavicle -9.57865e-14 -3.21029e-14 -9.58949e-30
rhumerus -43.3267 -8.69857 -80.2956
rradius 49.0183 -0 0
rwrist 0.64087 0 0
rhand -24.8511 -23.1187 0.019206
rfingers 7.12502 -0 0
rthumb 1.65538 -53.087 0.018816
36
root 6.52642 16.7855 -27.7372 5.35279 -0.755694 -0.689269
lfemur -17.2752 4.49332 -20.9518
ltibia 35.3753 -0 0
lfoot -34.6131 1.02314 -0.500236
ltoes 37.3579 -0 0
rfemur -32.6655 -8.33467 22.6337
rtibia 46.2859 -0 0
rfoot -21.263 -3.4362 2.59305
rtoes 10.5228 -0 0
lowerback 0.821995 2.1673 -5.50391
upperback -1.09553 2.79866 2.17523
thorax -1.92032 1.53903 5.57383
lowerneck -10.3317 -1.95689 1.51674
upperneck -1.10364 -2.76722 -0.444588
head 1.36643 -1.38753 -0.497419
lclavicle -9.50475e-14 -3.1606e-14 -9.93328e-30
lhumerus -41.9728 -12.9547 97.4431
lradius 38.2589 -0 0
lwrist 5.54402 0 0
lhand -7.53012 3.47702 0.125631
lfingers 7.12502 -0 0
lthumb 18.3393 32.3928 0.0351585
rclavicle -9.50475e-14 -3.1606e-14 -9.93328e-30
rhumerus -43.3084 -8.8804 -80.0944
rradius 49.3423 -0 0
rwrist 0.25102 0 0
rhand -24.8855 -23.1488 0.0196181
rfingers 7.12502 -0 0
rthumb 1.62212 -53.1172 0.019228
37
root 6.53847 16.7827 -27.7229 5.19314 -0.655158 -0.615229
lfemur -17.1652 4.58358 -20.965
ltibia 35.3826 -0 0
lfoot -34.4503 0.884452 -0.515723
ltoes 37.3 -0 0
rfemur -33.2435 -8.67268 22.8309
rtibia 46.7526 -0 0
rfoot -20.8779 -3.13804 2.6745
rtoes 10.0404 -0 0
lowerback 0.979845 2.10609 -5.53022
upperback -1.03245 2.70707 2.13808
thorax -1.92834 1.49304 5.55794
lowerneck -10.3525 -1.94373 1.49609
upperneck -1.09056 -2.74877 -0.405511
head 1.37524 -1.37719 -0.480821
lclavicle -9.42928e-14 -3.11028e-14 -1.0274e-29
lhumerus -41.9696 -13.0562 97.3731
lradius 38.4036 -0 0
lwrist 5.6681 0 0
lhand -7.36004 3.50194 0.129937
lfingers 7.12502 -0 0
lthumb 18.5022 32.3944 0.0366521
rclavicle -9.42928e-14 -3.11028e-14 -1.0274e-29
rhumerus -43.2904 -9.06437 -79.8908
rradius 49.6698 -0 0
rwrist -0.14322 0 0
rhand -24.9203 -23.1792 0.0200146
rfingers 7.12502 -0 0
rthumb 1.58852 -53.1478 0.0196252
38
root 6.55065 16.7799 -27.7085 5.03189 -0.553283 -0.540712
lfemur -17.054 4.67483 -20.9781
ltibia 35.39 -0 0
lfoot -34.2857 0.744184 -0.530976
ltoes 37.2414 -0 0
rfemur -33.8296 -9.01233 23.0339
rtibia 47.2244 -0 0
rfoot -20.4882 -2.83607 2.75478
rtoes 9.55279 -0 0
lowerback 1.1395 2.04428 -5.55701
upperback -0.968635 2.61452 2.10047
thorax -1.93648 1.44656 5.54193
lowerneck -10.3736 -1.93044 1.47521
upperneck -1.07732 -2.73013 -0.366026
head 1.38416 -1.36675 -0.464048
lclavicle -9.35228e-14 -3.05936e-14 -1.06113e-29
lhumerus -41.9662 -13.1588 97.3024
lradius 38.5498 -0 0
lwrist 5.79351 0 0
lhand -7.18804 3.52766 0.134199
lfingers 7.12502 -0 0
lthumb 18.6669 32.3965 0.0381431
rclavicle -9.35228e-14 -3.05936e-14 -1.06113e-29
rhumerus -43.2729 -9.25043 -79.6849
rradius 50.0008 -0 0
rwrist -0.541722 0 0
rhand -24.9554 -23.21 0.0203955
rfingers 7.12502 -0 0
rthumb 1.55458 -53.1787 0.0200072
39
root 6.56296 16.7771 -27.6939 4.86908 -0.450096 -0.465751
lfemur -16.9417 4.76705 -20.9911
ltibia 35.3976 -0 0
lfoot -34.1194 0.602383 -0.545976
ltoes 37.1822 -0 0
rfemur -34.4236 -9.35342 23.2428
rtibia 47.7012 -0 0
rfoot -20.094 -2.53039 2.83381
rtoes 9.06 -0 0
lowerback 1.3009 1.98191 -5.58425
upperback -0.904107 2.52105 2.0624
thorax -1.94474 1.39959 5.52579
lowerneck -10.3949 -1.91703 1.45409
upperneck -1.06394 -2.71131 -0.326147
head 1.39318 -1.35621 -0.447105
lclavicle -9.27378e-14 -3.00786e-14 -1.09447e-29
lhumerus -41.9627 -13.2624 97.231
lradius 38.6975 -0 0
lwrist 5.92018 0 0
lhand -7.01418 3.55414 0.138411
lfingers 7.12502 -0 0
lthumb 18.8334 32.3991 0.0396288
rclavicle -9.27378e-14 -3.00786e-14 -1.09447e-29
rhumerus -43.2558 -9.43852 -79.4768
rradius 50.3352 -0 0
rwrist -0.944359 0 0
rhand -24.9909 -23.241 0.0207605
rfingers 7.12502 -0 0
rthumb 1.52031 -53.2099 0.0203741
